<svg width="31" height="36" viewBox="0 0 31 36" fill="none" xmlns="http://www.w3.org/2000/svg">
<path d="M7.75707 15.5637L0 31.1275L1.35725 33.559L2.7145 36H15.5047H28.3044L29.6522 33.559L31 31.118L23.2524 15.5543L15.5047 -1.45286e-07L7.75707 15.5637ZM17.7197 8.5908C18.9355 11.1264 20.4625 14.3054 21.1128 15.6583C22.7245 18.9887 22.7151 18.9698 22.7151 19.0833C22.7151 19.1306 21.9045 20.8526 20.9149 22.9056C19.9252 24.9587 18.9732 26.9456 18.7942 27.3146L18.4831 28.0053H17.4275H16.3718L16.4284 27.5984C16.4567 27.3808 16.6829 25.375 16.9279 23.1327L17.3709 19.0738L17.8705 18.6102C19.5199 17.0965 19.388 14.5041 17.5971 13.1795C16.8714 12.6497 16.2022 12.451 15.2785 12.5078C13.9684 12.5834 12.875 13.3214 12.3001 14.523C12.055 15.0244 11.9709 15.4024 11.9702 15.9895C11.9695 16.6043 12.0456 16.9451 12.3284 17.5222C12.5263 17.929 12.8091 18.317 13.1389 18.6102L13.6385 19.0738L14.0815 23.1327C14.3265 25.375 14.5528 27.3808 14.581 27.5984L14.6376 28.0053H13.5537H12.4792L11.5932 26.1319C11.1031 25.1101 10.17 23.1233 9.50076 21.723C8.84099 20.3227 8.29431 19.1401 8.29431 19.0738C8.29431 18.9414 15.3916 3.97372 15.4576 3.97372C15.4859 3.98318 16.5038 6.05519 17.7197 8.5908ZM8.29431 24.7695C9.03892 26.3685 10.0286 28.4405 10.4716 29.3771C11.8005 32.1398 12.5357 33.7104 12.5357 33.7482C12.5357 33.7577 10.5564 33.7766 8.12466 33.7766H3.72302L2.97841 32.4331L2.23381 31.0991L4.5336 26.482C5.7966 23.9464 6.85224 21.8649 6.88051 21.8649C6.90879 21.8649 7.54029 23.1706 8.29431 24.7695ZM26.4664 26.482L28.7662 31.0991L28.0216 32.4331L27.2864 33.7766H22.8753C19.3785 33.7766 19.0392 33.7766 18.4737 33.7766C18.502 33.7198 19.7461 31.0234 21.2071 27.958C22.668 24.883 23.9027 22.2623 23.9593 22.1109C24.0064 21.969 24.0818 21.8555 24.1101 21.8649C24.1478 21.8649 25.2034 23.9464 26.4664 26.482Z" fill="#928443"/>
</svg>
