<svg width="329" height="381" viewBox="0 0 329 381" fill="none" xmlns="http://www.w3.org/2000/svg">
<path d="M82.3 164.5L0 329L14.4 354.7L28.8 380.5H164.5H300.3L314.6 354.7L328.9 328.9L246.7 164.4L164.5 0L82.3 164.5ZM188 90.8C200.9 117.6 217.1 151.2 224 165.5C241.1 200.7 241 200.5 241 201.7C241 202.2 232.4 220.4 221.9 242.1C211.4 263.8 201.3 284.8 199.4 288.7L196.1 296H184.9H173.7L174.3 291.7C174.6 289.4 177 268.2 179.6 244.5L184.3 201.6L189.6 196.7C207.1 180.7 205.7 153.3 186.7 139.3C179 133.7 171.9 131.6 162.1 132.2C148.2 133 136.6 140.8 130.5 153.5C127.9 158.8 127.007 162.794 127 169C126.993 175.498 127.8 179.1 130.8 185.2C132.9 189.5 135.9 193.6 139.4 196.7L144.7 201.6L149.4 244.5C152 268.2 154.4 289.4 154.7 291.7L155.3 296H143.8H132.4L123 276.2C117.8 265.4 107.9 244.4 100.8 229.6C93.8 214.8 88 202.3 88 201.6C88 200.2 163.3 42 164 42C164.3 42.1 175.1 64 188 90.8ZM88 261.8C95.9 278.7 106.4 300.6 111.1 310.5C125.2 339.7 133 356.3 133 356.7C133 356.8 112 357 86.2 357H39.5L31.6 342.8L23.7 328.7L48.1 279.9C61.5 253.1 72.7 231.1 73 231.1C73.3 231.1 80 244.9 88 261.8ZM280.8 279.9L305.2 328.7L297.3 342.8L289.5 357H242.7C205.6 357 202 357 196 357C196.3 356.4 209.5 327.9 225 295.5C240.5 263 253.6 235.3 254.2 233.7C254.7 232.2 255.5 231 255.8 231.1C256.2 231.1 267.4 253.1 280.8 279.9Z" fill="#928443"/>
</svg>
